Coordinates
version=1
nRows=29
nColumns=24
inDegrees=yes

Units are S.I. units (second, meters, Newtons, ...)
Angles are in degrees.

endheader
time	pelvis_tilt	pelvis_list	pelvis_rotation	pelvis_tx	pelvis_ty	pelvis_tz	hip_flexion_r	hip_adduction_r	hip_rotation_r	knee_angle_r	ankle_angle_r	subtalar_angle_r	mtp_angle_r	hip_flexion_l	hip_adduction_l	hip_rotation_l	knee_angle_l	ankle_angle_l	subtalar_angle_l	mtp_angle_l	lumbar_extension	lumbar_bending	lumbar_rotation
      0.51900000	     -3.14496043	      5.40615867	      1.92154564	     -0.82669750	      0.97653069	      0.28989237	     28.15360126	     -4.27168113	     -5.50224896	     -5.12667258	      5.11720669	     -2.36357855	      8.14065077	    -13.24390586	      8.87639084	      3.45159937	     -5.58071103	      9.88503419	     -4.69940942	     -0.76862252	     -0.16929955	     -3.38211482	     -0.94927603
      0.52316667	     -3.17267140	      5.38405461	      1.94657829	     -0.82082541	      0.97598752	      0.29027741	     28.18211224	     -4.21180504	     -5.53707534	     -5.35890769	      4.96272463	     -2.52548582	      8.14683319	    -13.31537679	      8.82231699	      3.41801301	     -6.07364558	      9.86550215	     -4.67204876	     -0.74664058	     -0.09166429	     -3.34661961	     -0.86095462
      0.52733333	     -3.23957637	      5.34712175	      1.96786776	     -0.81491631	      0.97542215	      0.29067669	     28.25960814	     -4.13553465	     -5.53025843	     -5.67014676	      4.77380837	     -2.76340106	      8.15926442	    -13.31460646	      8.75417253	      3.34624374	     -6.62635488	      9.85687673	     -4.59178885	     -0.70046116	      0.03336655	     -3.28974049	     -0.88892936
      0.53150000	     -3.26723094	      5.30869010	      1.98415206	     -0.80897343	      0.97494580	      0.29106079	     28.30956650	     -4.06353382	     -5.54998326	     -6.06753479	      4.52176019	     -3.00413366	      8.16793004	    -13.36092019	      8.68611667	      3.31241386	     -7.16582841	      9.80538830	     -4.54392821	     -0.65563355	      0.11965648	     -3.21545604	     -0.90034872
      0.53566667	     -3.32083279	      5.26370196	      1.97574089	     -0.80301102	      0.97446321	      0.29151241	     28.37334251	     -3.96316453	     -5.42497040	     -6.48405244	      4.28095015	     -3.42511849	      8.20493853	    -13.32443661	      8.61348829	      3.17012706	     -7.80549628	      9.77403305	     -4.43076086	     -0.51525909	      0.24214747	     -3.14075379	     -0.93247655
      0.53983333	     -3.35738856	      5.21246184	      1.99050602	     -0.79699663	      0.97405996	      0.29190306	     28.43164294	     -3.88154797	     -5.42520350	     -6.97673669	      3.92146147	     -3.67483340	      8.21613398	    -13.32051009	      8.53427372	      3.14423313	     -8.41903198	      9.65113983	     -4.43804718	     -0.44507599	      0.34356950	     -3.05887204	     -0.92389432
      0.54400000	     -3.41656719	      5.16384900	      1.98002100	     -0.79096636	      0.97365016	      0.29234123	     28.51558360	     -3.78490723	     -5.32498685	     -7.50726475	      3.56070215	     -4.03828874	      8.23474656	    -13.25759933	      8.46395982	      3.06693262	     -9.09001161	      9.51726789	     -4.41059201	     -0.33824693	      0.47865771	     -2.97600518	     -0.92350233
      0.54816667	     -3.46384671	      5.09088009	      1.94467498	     -0.78491251	      0.97329669	      0.29285308	     28.55953086	     -3.63770801	     -5.08630190	     -8.01964097	      3.24746901	     -4.66778614	      8.29102236	    -13.16973174	      8.36530987	      2.89638608	     -9.83169924	      9.41068779	     -4.33380838	     -0.04235747	      0.60480801	     -2.86312589	     -0.91466775
      0.55233333	     -3.49967375	      5.02712720	      1.93026818	     -0.77880012	      0.97301413	      0.29329157	     28.61230841	     -3.53081991	     -5.02571957	     -8.60264313	      2.78073811	     -4.92769082	      8.30556329	    -13.10260615	      8.27938690	      2.83962486	    -10.54999185	      9.15433476	     -4.36436472	      0.08667544	      0.71748107	     -2.75996663	     -0.89159319
      0.55650000	     -3.54849891	      4.94190472	      1.87878847	     -0.77269692	      0.97274009	      0.29383914	     28.65371364	     -3.36043800	     -4.74831086	     -9.16145754	      2.43364476	     -5.64177081	      8.36695477	    -12.96639345	      8.16906756	      2.64707166	    -11.36922316	      8.97859983	     -4.30047681	      0.55818853	      0.85531278	     -2.62792598	     -0.85546525
      0.56066667	     -3.59598003	      4.87214770	      1.85629190	     -0.76655740	      0.97253701	      0.29431736	     28.69413201	     -3.23645776	     -4.61551605	     -9.73594993	      1.94532329	     -5.92088971	      8.38908886	    -12.81933502	      8.07716693	      2.56111517	    -12.20402649	      8.65593920	     -4.35462763	      0.81968833	      0.98452010	     -2.53004869	     -0.81840770
      0.56483333	     -3.62127325	      4.76999581	      1.79061165	     -0.76038051	      0.97239218	      0.29488359	     28.71762099	     -3.05177372	     -4.41044436	    -10.35059929	      1.52475763	     -6.49032125	      8.75634458	    -12.66782595	      7.94493436	      2.33924807	    -13.06727445	      8.23019450	     -4.37475940	      5.53226167	      1.07988551	     -2.37132131	     -0.77670426
      0.56900000	     -3.65013943	      4.67709990	      1.72407910	     -0.75415059	      0.97228879	      0.29541274	     28.74256093	     -2.88886099	     -4.27469424	    -10.97236138	      1.09999196	     -6.72369827	      8.74734759	    -12.51776072	      7.83541986	      2.23015825	    -13.93007203	      7.82500397	     -4.43534573	      5.55911098	      1.21222710	     -2.22579940	     -0.73861801
      0.57316667	     -3.71328093	      4.58512401	      1.67470059	     -0.74798339	      0.97219539	      0.29598351	     28.76894774	     -2.71444147	     -4.01623162	    -11.53361631	      0.69141782	     -7.24479247	      8.72885501	    -12.24630896	      7.71262369	      2.04803950	    -14.94478524	      7.42677491	     -4.43303130	      5.67305917	      1.37329990	     -2.10148735	     -0.67002242
      0.57733333	     -3.73956537	      4.46842814	      1.60262585	     -0.74176692	      0.97219355	      0.29657750	     28.75728109	     -2.51047758	     -3.79344438	    -12.11234709	      0.29849885	     -7.69703231	      8.70169421	    -12.00134933	      7.56322250	      1.84080406	    -15.96865523	      6.94043542	     -4.42739421	      5.84883260	      1.48973192	     -1.93392346	     -0.61293382
      0.58150000	     -3.73341602	      4.33717947	      1.51188519	     -0.73549822	      0.97227460	      0.29716800	     28.73106974	     -2.29948878	     -3.66105387	    -12.74965830	     -0.02803087	     -7.96775967	      8.67988857	    -11.79059596	      7.40285571	      1.65234505	    -16.97897880	      6.35822832	     -4.47134121	      5.97412785	      1.56682103	     -1.72776540	     -0.57280284
      0.58566667	     -3.75328247	      4.18361770	      1.45136983	     -0.72930825	      0.97238195	      0.29782866	     28.66300635	     -2.04554963	     -3.36961568	    -13.25253824	     -0.34730835	     -8.61536632	      8.01648396	    -11.44577491	      7.18905399	      1.37326835	    -18.17274351	      5.79392444	     -4.46332341	     10.47352442	      1.67403734	     -1.53327182	     -0.50059676
      0.58983333	     -3.77653241	      4.07288445	      1.37495277	     -0.72310420	      0.97250469	      0.29844908	     28.64284755	     -1.85502701	     -3.19380941	    -13.84565560	     -0.61647248	     -8.85271805	      7.99975982	    -11.09905609	      7.03380466	      1.15157359	    -19.35099033	      5.11090550	     -4.47215769	     10.52684742	      1.78682530	     -1.38384368	     -0.44073085
      0.59400000	     -3.77481710	      3.92287256	      1.29857053	     -0.71692456	      0.97269338	      0.29910039	     28.58344398	     -1.61886598	     -3.01293786	    -14.42578626	     -0.84674221	     -9.28605443	      7.95332420	    -10.72836694	      6.82421520	      0.89511444	    -20.60929560	      4.46258165	     -4.43334962	     10.70915128	      1.86134438	     -1.18249428	     -0.37544332
      0.59816667	     -3.77620772	      3.76877075	      1.23474290	     -0.71073473	      0.97293121	      0.29973134	     28.49849491	     -1.38822223	     -2.85276407	    -14.95356901	     -1.02249840	     -9.49521451	      7.91404316	    -10.32014023	      6.60654722	      0.66612344	    -21.91574123	      3.67355550	     -4.45218108	     10.86686197	      1.94755699	     -0.97883117	     -0.33262040
      0.60233333	     -3.78466549	      3.60001076	      1.16740337	     -0.70461168	      0.97315687	      0.30040477	     28.44036103	     -1.13856438	     -2.70171899	    -15.52532868	     -1.17014764	     -9.89748380	      7.83038778	     -9.84692701	      6.35693754	      0.38439880	    -23.31142641	      2.93577475	     -4.38776085	     11.19966221	      2.02354145	     -0.75740813	     -0.28000594
      0.60650000	     -3.76826203	      3.42729300	      1.11829589	     -0.69847320	      0.97348619	      0.30105086	     28.31232728	     -0.89717466	     -2.57500237	    -16.01752124	     -1.23332093	    -10.05701593	      7.76263632	     -9.37392445	      6.09769972	      0.14681877	    -24.72789306	      2.03019642	     -4.41271524	     11.46664931	      2.08874536	     -0.53951657	     -0.24058919
      0.61066667	     -3.72192912	      3.22016947	      1.06685509	     -0.69239436	      0.97384397	      0.30173137	     28.16395911	     -0.61819802	     -2.47956828	    -16.54011653	     -1.28375674	    -10.35069122	      6.43159422	     -8.88942325	      5.78199875	     -0.13700735	    -26.19943434	      1.05743757	     -4.43403477	     16.52356187	      2.08386791	     -0.27788329	     -0.18044655
      0.61483333	     -3.70920784	      3.04374969	      1.02356949	     -0.68637786	      0.97416766	      0.30237047	     28.05746239	     -0.38451551	     -2.41566260	    -17.07038612	     -1.25117045	    -10.47013352	      6.41347636	     -8.32456200	      5.50553711	     -0.36479651	    -27.73859028	      0.13749046	     -4.43750253	     16.56145183	      2.13301693	     -0.06087005	     -0.16264721
      0.61900000	     -3.69254826	      2.84335778	      0.99823996	     -0.68039127	      0.97453094	      0.30301554	     27.91445544	     -0.12981730	     -2.36168447	    -17.53919763	     -1.19129888	    -10.57096272	      6.38882691	     -7.72482273	      5.18892741	     -0.58855576	    -29.32445977	     -0.86175440	     -4.45830487	     16.62009041	      2.17539386	      0.17770965	     -0.13085996
      0.62316667	     -3.66673374	      2.63605094	      0.97697838	     -0.67446900	      0.97491191	      0.30365469	     27.75651168	      0.12732847	     -2.33154550	    -17.99642272	     -1.10328316	    -10.67837669	      6.35561219	     -7.09357638	      4.85724804	     -0.80601842	    -30.95954318	     -1.87666089	     -4.46907430	     16.69613959	      2.19542815	      0.42895116	     -0.10051169
      0.62733333	     -3.66026600	      2.42019686	      0.96059112	     -0.66863185	      0.97524562	      0.30430281	     27.62843383	      0.39182148	     -2.32234335	    -18.46921827	     -1.00085479	    -10.83993025	      6.29145510	     -6.39991504	      4.50620331	     -1.02127638	    -32.64607089	     -2.91563602	     -4.46898376	     16.83275748	      2.22536719	      0.68885650	     -0.08284243
      0.63150000	     -3.61940002	      2.19160853	      0.96232294	     -0.66281025	      0.97566570	      0.30493449	     27.41766065	      0.66106447	     -2.33671931	    -18.85058799	     -0.84252012	    -10.84880462	      6.25352395	     -5.72162851	      4.13365561	     -1.20712643	    -34.33973112	     -4.01553148	     -4.51619833	     16.90621718	      2.21864146	      0.94766530	     -0.04973837
      0.63566667	     -3.56942737	      1.96006906	      0.96532795	     -0.65707072	      0.97608294	      0.30553474	     27.21003999	      0.92545523	     -2.39476687	    -19.25559565	     -0.67679726	    -10.84189435	      6.22795613	     -5.02595332	      3.76188880	     -1.35519557	    -36.04758373	     -5.15096090	     -4.56310217	     16.94716063	      2.17576782	      1.23665226	     -0.01350109
